name analog
datacolumns 19
datarows 86
range 0.1775 0.22
endheader
time	ground_force_vx	ground_force_vy	ground_force_vz	ground_force_px	ground_force_py	ground_force_pz	l_ground_force_vx	l_ground_force_vy	l_ground_force_vz	l_ground_force_px	l_ground_force_py	l_ground_force_pz	ground_torque_x	ground_torque_y	ground_torque_z	l_ground_torque_x	l_ground_torque_y	l_ground_torque_z
0.1775	-0.0	-0.0	-0.0	-1.6627905368804932	-3.3120625019073486	-908.3223876953124	-0.0	-0.0	-0.0	-0.0	-0.0	-0.0	-0.0	-0.0	-0.0	-0.0	-0.0	-0.0
0.178	-0.0	-0.0	-0.0	-1.4172590970993042	-2.8805243968963623	-906.7252197265624	-0.0	-0.0	-0.0	-0.0	-0.0	-0.0	-0.0	-0.0	-0.0	-0.0	-0.0	-0.0
0.1785	-0.0	-0.0	-0.0	-0.2958481311798095	-2.5192859172821045	-908.1553955078124	-0.0	-0.0	-0.0	-0.0	-0.0	-0.0	-0.0	-0.0	-0.0	-0.0	-0.0	-0.0
0.179	-0.0	-0.0	-0.0	0.4882502853870392	-2.031135320663452	-907.7281494140624	-0.0	-0.0	-0.0	-0.0	-0.0	-0.0	-0.0	-0.0	-0.0	-0.0	-0.0	-0.0
0.1795	-0.0	-0.0	-0.0	0.8448516726493835	-1.857765316963196	-906.6682739257812	-0.0	-0.0	-0.0	-0.0	-0.0	-0.0	-0.0	-0.0	-0.0	-0.0	-0.0	-0.0
0.18	-0.0	-0.0	-0.0	1.6949996948242188	-1.5013054609298706	-904.383544921875	-0.0	-0.0	-0.0	-0.0	-0.0	-0.0	-0.0	-0.0	-0.0	-0.0	-0.0	-0.0
0.1805	-0.0	-0.0	-0.0	1.564144730567932	-2.3846991062164307	-902.508056640625	-0.0	-0.0	-0.0	-0.0	-0.0	-0.0	-0.0	-0.0	-0.0	-0.0	-0.0	-0.0
0.181	-0.0	-0.0	-0.0	2.278069496154785	-2.2760238647460938	-903.350341796875	-0.0	-0.0	-0.0	-0.0	-0.0	-0.0	-0.0	-0.0	-0.0	-0.0	-0.0	-0.0
0.1815	-0.0	-0.0	-0.0	1.9968072175979612	-2.097890853881836	-903.1074829101562	-0.0	-0.0	-0.0	-0.0	-0.0	-0.0	-0.0	-0.0	-0.0	-0.0	-0.0	-0.0
0.182	-0.0	-0.0	-0.0	1.6883318424224854	-2.228260040283203	-900.201416015625	-0.0	-0.0	-0.0	-0.0	-0.0	-0.0	-0.0	-0.0	-0.0	-0.0	-0.0	-0.0
0.1825	-0.0	-0.0	-0.0	1.5165786743164062	-2.1663384437561035	-898.3522338867188	-0.0	-0.0	-0.0	-0.0	-0.0	-0.0	-0.0	-0.0	-0.0	-0.0	-0.0	-0.0
0.183	-0.0	-0.0	-0.0	1.8113582134246824	-3.003309965133667	-897.2689819335938	-0.0	-0.0	-0.0	-0.0	-0.0	-0.0	-0.0	-0.0	-0.0	-0.0	-0.0	-0.0
0.1835	-0.0	-0.0	-0.0	1.8734207153320312	-2.398280620574951	-896.7565307617188	-0.0	-0.0	-0.0	-0.0	-0.0	-0.0	-0.0	-0.0	-0.0	-0.0	-0.0	-0.0
0.184	-0.0	-0.0	-0.0	1.7169556617736816	-2.941303253173828	-895.7708129882812	-0.0	-0.0	-0.0	-0.0	-0.0	-0.0	-0.0	-0.0	-0.0	-0.0	-0.0	-0.0
0.1845	-0.0	-0.0	-0.0	1.770821213722229	-3.030433654785156	-895.5582885742188	-0.0	-0.0	-0.0	-0.0	-0.0	-0.0	-0.0	-0.0	-0.0	-0.0	-0.0	-0.0
0.185	-0.0	-0.0	-0.0	1.9986064434051516	-3.2219913005828857	-894.6204223632812	-0.0	-0.0	-0.0	-0.0	-0.0	-0.0	-0.0	-0.0	-0.0	-0.0	-0.0	-0.0
0.1855	-0.0	-0.0	-0.0	1.315276861190796	-2.981065273284912	-895.7548828125	-0.0	-0.0	-0.0	-0.0	-0.0	-0.0	-0.0	-0.0	-0.0	-0.0	-0.0	-0.0
0.186	-0.0	-0.0	-0.0	1.9098137617111208	-3.083203792572021	-894.8661499023438	-0.0	-0.0	-0.0	-0.0	-0.0	-0.0	-0.0	-0.0	-0.0	-0.0	-0.0	-0.0
0.1865	-0.0	-0.0	-0.0	2.4113423824310303	-3.195582151412964	-896.2667846679688	-0.0	-0.0	-0.0	-0.0	-0.0	-0.0	-0.0	-0.0	-0.0	-0.0	-0.0	-0.0
0.187	-0.0	-0.0	-0.0	3.124729633331299	-3.0173635482788086	-896.6203002929688	-0.0	-0.0	-0.0	-0.0	-0.0	-0.0	-0.0	-0.0	-0.0	-0.0	-0.0	-0.0
0.1875	-0.0	-0.0	-0.0	3.7226386070251465	-2.7760322093963623	-897.8277587890625	-0.0	-0.0	-0.0	-0.0	-0.0	-0.0	-0.0	-0.0	-0.0	-0.0	-0.0	-0.0
0.188	-0.0	-0.0	-0.0	4.510859489440918	-2.40652084350586	-897.37890625	-0.0	-0.0	-0.0	-0.0	-0.0	-0.0	-0.0	-0.0	-0.0	-0.0	-0.0	-0.0
0.1885	-0.0	-0.0	-0.0	5.00868558883667	-2.5965981483459477	-897.3280639648438	-0.0	-0.0	-0.0	-0.0	-0.0	-0.0	-0.0	-0.0	-0.0	-0.0	-0.0	-0.0
0.189	-0.0	-0.0	-0.0	5.327505111694336	-2.113518714904785	-895.46337890625	-0.0	-0.0	-0.0	-0.0	-0.0	-0.0	-0.0	-0.0	-0.0	-0.0	-0.0	-0.0
0.1895	-0.0	-0.0	-0.0	6.346720218658447	-2.2152886390686035	-894.4033203125	-0.0	-0.0	-0.0	-0.0	-0.0	-0.0	-0.0	-0.0	-0.0	-0.0	-0.0	-0.0
0.19	-0.0	-0.0	-0.0	6.397509574890137	-1.897140860557556	-892.8388671875	-0.0	-0.0	-0.0	-0.0	-0.0	-0.0	-0.0	-0.0	-0.0	-0.0	-0.0	-0.0
0.1905	-0.0	-0.0	-0.0	6.855792999267578	-2.407303810119629	-891.8825073242188	-0.0	-0.0	-0.0	-0.0	-0.0	-0.0	-0.0	-0.0	-0.0	-0.0	-0.0	-0.0
0.191	-0.0	-0.0	-0.0	7.124250888824463	-1.7689498662948608	-889.7642211914062	-0.0	-0.0	-0.0	-0.0	-0.0	-0.0	-0.0	-0.0	-0.0	-0.0	-0.0	-0.0
0.1915	-0.0	-0.0	-0.0	6.883360862731934	-1.463582158088684	-885.7257690429688	-0.0	-0.0	-0.0	-0.0	-0.0	-0.0	-0.0	-0.0	-0.0	-0.0	-0.0	-0.0
0.192	-0.0	-0.0	-0.0	6.232287883758545	-1.6043472290039062	-883.4591064453125	-0.0	-0.0	-0.0	-0.0	-0.0	-0.0	-0.0	-0.0	-0.0	-0.0	-0.0	-0.0
0.1925	-0.0	-0.0	-0.0	6.398345470428467	-2.520440101623535	-878.9572143554688	-0.0	-0.0	-0.0	-0.0	-0.0	-0.0	-0.0	-0.0	-0.0	-0.0	-0.0	-0.0
0.193	-0.0	-0.0	-0.0	6.081573486328125	-2.953617572784424	-874.1575927734375	-0.0	-0.0	-0.0	-0.0	-0.0	-0.0	-0.0	-0.0	-0.0	-0.0	-0.0	-0.0
0.1935	-0.0	-0.0	-0.0	5.838763236999512	-3.3992269039154053	-873.3167114257812	-0.0	-0.0	-0.0	-0.0	-0.0	-0.0	-0.0	-0.0	-0.0	-0.0	-0.0	-0.0
0.194	-0.0	-0.0	-0.0	5.8878936767578125	-3.5896358489990234	-870.7482299804688	-0.0	-0.0	-0.0	-0.0	-0.0	-0.0	-0.0	-0.0	-0.0	-0.0	-0.0	-0.0
0.1945	-0.0	-0.0	-0.0	5.827190399169922	-3.9987382888793945	-868.0202026367188	-0.0	-0.0	-0.0	-0.0	-0.0	-0.0	-0.0	-0.0	-0.0	-0.0	-0.0	-0.0
0.195	-0.0	-0.0	-0.0	5.381350040435791	-4.343214988708496	-865.5003662109375	-0.0	-0.0	-0.0	-0.0	-0.0	-0.0	-0.0	-0.0	-0.0	-0.0	-0.0	-0.0
0.1955	-0.0	-0.0	-0.0	4.554820537567139	-4.307353496551514	-863.3345947265625	-0.0	-0.0	-0.0	-0.0	-0.0	-0.0	-0.0	-0.0	-0.0	-0.0	-0.0	-0.0
0.196	-0.0	-0.0	-0.0	3.990560293197632	-4.379335403442383	-862.1595458984375	-0.0	-0.0	-0.0	-0.0	-0.0	-0.0	-0.0	-0.0	-0.0	-0.0	-0.0	-0.0
0.1965	-0.0	-0.0	-0.0	3.877606868743897	-4.480326652526856	-860.3233032226562	-0.0	-0.0	-0.0	-0.0	-0.0	-0.0	-0.0	-0.0	-0.0	-0.0	-0.0	-0.0
0.197	-0.0	-0.0	-0.0	3.687673091888428	-4.557473659515381	-861.7842407226562	-0.0	-0.0	-0.0	-0.0	-0.0	-0.0	-0.0	-0.0	-0.0	-0.0	-0.0	-0.0
0.1975	-0.0	-0.0	-0.0	3.2402777671813965	-3.856168031692505	-860.1331787109375	-0.0	-0.0	-0.0	-0.0	-0.0	-0.0	-0.0	-0.0	-0.0	-0.0	-0.0	-0.0
0.198	-0.0	-0.0	-0.0	3.216203212738037	-4.30879545211792	-859.4542846679688	-0.0	-0.0	-0.0	-0.0	-0.0	-0.0	-0.0	-0.0	-0.0	-0.0	-0.0	-0.0
0.1985	-0.0	-0.0	-0.0	3.3357365131378174	-3.820968627929688	-858.2734375	-0.0	-0.0	-0.0	-0.0	-0.0	-0.0	-0.0	-0.0	-0.0	-0.0	-0.0	-0.0
0.199	-0.0	-0.0	-0.0	3.133974552154541	-3.766669511795044	-859.548095703125	-0.0	-0.0	-0.0	-0.0	-0.0	-0.0	-0.0	-0.0	-0.0	-0.0	-0.0	-0.0
0.1995	-0.0	-0.0	-0.0	3.4561567306518555	-3.898705244064331	-859.8106079101562	-0.0	-0.0	-0.0	-0.0	-0.0	-0.0	-0.0	-0.0	-0.0	-0.0	-0.0	-0.0
0.2	-0.0	-0.0	-0.0	3.9941658973693848	-3.933211326599121	-858.4091796875	-0.0	-0.0	-0.0	-0.0	-0.0	-0.0	-0.0	-0.0	-0.0	-0.0	-0.0	-0.0
0.2005	-0.0	-0.0	-0.0	4.863056659698486	-3.944561719894409	-858.8883666992188	-0.0	-0.0	-0.0	-0.0	-0.0	-0.0	-0.0	-0.0	-0.0	-0.0	-0.0	-0.0
0.201	-0.0	-0.0	-0.0	6.590235710144043	-4.155133247375488	-858.227294921875	-0.0	-0.0	-0.0	-0.0	-0.0	-0.0	-0.0	-0.0	-0.0	-0.0	-0.0	-0.0
0.2015	-0.0	-0.0	-0.0	7.973633766174316	-4.356100559234619	-857.5656127929688	-0.0	-0.0	-0.0	-0.0	-0.0	-0.0	-0.0	-0.0	-0.0	-0.0	-0.0	-0.0
0.202	-0.0	-0.0	-0.0	9.456314086914062	-3.710484981536865	-856.1971435546875	-0.0	-0.0	-0.0	-0.0	-0.0	-0.0	-0.0	-0.0	-0.0	-0.0	-0.0	-0.0
0.2025	-0.0	-0.0	-0.0	10.337261199951172	-3.9329352378845215	-856.3729858398438	-0.0	-0.0	-0.0	-0.0	-0.0	-0.0	-0.0	-0.0	-0.0	-0.0	-0.0	-0.0
0.203	-0.0	-0.0	-0.0	10.939547538757324	-4.111393928527832	-855.225830078125	-0.0	-0.0	-0.0	-0.0	-0.0	-0.0	-0.0	-0.0	-0.0	-0.0	-0.0	-0.0
0.20350000000000001	-0.0	-0.0	-0.0	9.83522605895996	-3.688352584838867	-853.9891357421875	-0.0	-0.0	-0.0	-0.0	-0.0	-0.0	-0.0	-0.0	-0.0	-0.0	-0.0	-0.0
0.20400000000000001	-0.0	-0.0	-0.0	10.159006118774414	-3.476085662841797	-852.22314453125	-0.0	-0.0	-0.0	-0.0	-0.0	-0.0	-0.0	-0.0	-0.0	-0.0	-0.0	-0.0
0.20450000000000002	-0.0	-0.0	-0.0	8.607932090759277	-3.732555866241455	-850.5005493164062	-0.0	-0.0	-0.0	-0.0	-0.0	-0.0	-0.0	-0.0	-0.0	-0.0	-0.0	-0.0
0.20500000000000002	-0.0	-0.0	-0.0	7.593743801116943	-3.710954427719116	-850.6386108398438	-0.0	-0.0	-0.0	-0.0	-0.0	-0.0	-0.0	-0.0	-0.0	-0.0	-0.0	-0.0
0.20550000000000002	-0.0	-0.0	-0.0	6.344754219055176	-3.3194212913513184	-849.579833984375	-0.0	-0.0	-0.0	-0.0	-0.0	-0.0	-0.0	-0.0	-0.0	-0.0	-0.0	-0.0
0.20600000000000002	-0.0	-0.0	-0.0	5.028027534484863	-3.7896604537963863	-848.367919921875	-0.0	-0.0	-0.0	-0.0	-0.0	-0.0	-0.0	-0.0	-0.0	-0.0	-0.0	-0.0
0.20650000000000002	-0.0	-0.0	-0.0	4.114349842071533	-3.93239426612854	-849.35546875	-0.0	-0.0	-0.0	-0.0	-0.0	-0.0	-0.0	-0.0	-0.0	-0.0	-0.0	-0.0
0.20700000000000002	-0.0	-0.0	-0.0	2.104959487915039	-4.078770637512207	-853.013671875	-0.0	-0.0	-0.0	-0.0	-0.0	-0.0	-0.0	-0.0	-0.0	-0.0	-0.0	-0.0
0.20750000000000002	-0.0	-0.0	-0.0	0.9967227578163148	-4.121066093444824	-855.8385009765625	-0.0	-0.0	-0.0	-0.0	-0.0	-0.0	-0.0	-0.0	-0.0	-0.0	-0.0	-0.0
0.20800000000000002	-0.0	-0.0	-0.0	-0.1312136352062225	-4.949337005615234	-858.227294921875	-0.0	-0.0	-0.0	-0.0	-0.0	-0.0	-0.0	-0.0	-0.0	-0.0	-0.0	-0.0
0.2085	-0.0	-0.0	-0.0	-0.94430011510849	-4.8339009284973145	-863.3370361328125	-0.0	-0.0	-0.0	-0.0	-0.0	-0.0	-0.0	-0.0	-0.0	-0.0	-0.0	-0.0
0.209	-0.0	-0.0	-0.0	-0.8132534027099609	-5.059733867645264	-866.391357421875	-0.0	-0.0	-0.0	-0.0	-0.0	-0.0	-0.0	-0.0	-0.0	-0.0	-0.0	-0.0
0.2095	-0.0	-0.0	-0.0	-0.7513147592544556	-5.207159996032715	-869.3800048828125	-0.0	-0.0	-0.0	-0.0	-0.0	-0.0	-0.0	-0.0	-0.0	-0.0	-0.0	-0.0
0.21	-0.0	-0.0	-0.0	-0.4255442917346954	-5.100922584533691	-872.516845703125	-0.0	-0.0	-0.0	-0.0	-0.0	-0.0	-0.0	-0.0	-0.0	-0.0	-0.0	-0.0
0.2105	-0.0	-0.0	-0.0	0.2371097803115844	-5.118739604949951	-877.763671875	-0.0	-0.0	-0.0	-0.0	-0.0	-0.0	-0.0	-0.0	-0.0	-0.0	-0.0	-0.0
0.211	-0.0	-0.0	-0.0	0.6143422722816467	-4.655025482177734	-876.319580078125	-0.0	-0.0	-0.0	-0.0	-0.0	-0.0	-0.0	-0.0	-0.0	-0.0	-0.0	-0.0
0.2115	-0.0	-0.0	-0.0	1.982733368873596	-4.485398292541504	-875.6524658203125	-0.0	-0.0	-0.0	-0.0	-0.0	-0.0	-0.0	-0.0	-0.0	-0.0	-0.0	-0.0
0.212	-0.0	-0.0	-0.0	3.479209899902344	-4.090017795562744	-872.278076171875	-0.0	-0.0	-0.0	-0.0	-0.0	-0.0	-0.0	-0.0	-0.0	-0.0	-0.0	-0.0
0.2125	-0.0	-0.0	-0.0	5.144369125366211	-3.3770172595977783	-868.0386962890625	-0.0	-0.0	-0.0	-0.0	-0.0	-0.0	-0.0	-0.0	-0.0	-0.0	-0.0	-0.0
0.213	-0.0	-0.0	-0.0	6.21513557434082	-2.426236391067505	-863.4451904296875	-0.0	-0.0	-0.0	-0.0	-0.0	-0.0	-0.0	-0.0	-0.0	-0.0	-0.0	-0.0
0.2135	-0.0	-0.0	-0.0	6.452628135681152	-1.109620213508606	-854.5367431640625	-0.0	-0.0	-0.0	-0.0	-0.0	-0.0	-0.0	-0.0	-0.0	-0.0	-0.0	-0.0
0.214	-0.0	-0.0	-0.0	6.96818208694458	0.2075212299823761	-849.635009765625	-0.0	-0.0	-0.0	-0.0	-0.0	-0.0	-0.0	-0.0	-0.0	-0.0	-0.0	-0.0
0.2145	-0.0	-0.0	-0.0	6.066314697265625	1.8309746980667116	-844.10009765625	-0.0	-0.0	-0.0	-0.0	-0.0	-0.0	-0.0	-0.0	-0.0	-0.0	-0.0	-0.0
0.215	-0.0	-0.0	-0.0	4.689598560333252	3.259300947189331	-841.98095703125	-0.0	-0.0	-0.0	-0.0	-0.0	-0.0	-0.0	-0.0	-0.0	-0.0	-0.0	-0.0
0.2155	-0.0	-0.0	-0.0	2.8133230209350586	3.577939748764038	-838.398681640625	-0.0	-0.0	-0.0	-0.0	-0.0	-0.0	-0.0	-0.0	-0.0	-0.0	-0.0	-0.0
0.216	-0.0	-0.0	-0.0	1.9531333446502688	3.176500082015991	-840.215087890625	-0.0	-0.0	-0.0	-0.0	-0.0	-0.0	-0.0	-0.0	-0.0	-0.0	-0.0	-0.0
0.2165	-0.0	-0.0	-0.0	0.2770870327949524	2.613122701644897	-844.1749877929688	-0.0	-0.0	-0.0	-0.0	-0.0	-0.0	-0.0	-0.0	-0.0	-0.0	-0.0	-0.0
0.217	-0.0	-0.0	-0.0	-0.8639792203903198	2.003164768218994	-848.9703369140625	-0.0	-0.0	-0.0	-0.0	-0.0	-0.0	-0.0	-0.0	-0.0	-0.0	-0.0	-0.0
0.2175	-0.0	-0.0	-0.0	-1.5497934818267822	1.1586952209472656	-855.5126953125	-0.0	-0.0	-0.0	-0.0	-0.0	-0.0	-0.0	-0.0	-0.0	-0.0	-0.0	-0.0
0.218	-0.0	-0.0	-0.0	-1.953360199928284	0.1689980924129486	-863.5983276367188	-0.0	-0.0	-0.0	-0.0	-0.0	-0.0	-0.0	-0.0	-0.0	-0.0	-0.0	-0.0
0.2185	-0.0	-0.0	-0.0	-1.6609340906143188	-0.5898777842521667	-870.344482421875	-0.0	-0.0	-0.0	-0.0	-0.0	-0.0	-0.0	-0.0	-0.0	-0.0	-0.0	-0.0
0.219	-0.0	-0.0	-0.0	-2.2028181552886963	-2.468231201171875	-877.7969970703125	-0.0	-0.0	-0.0	-0.0	-0.0	-0.0	-0.0	-0.0	-0.0	-0.0	-0.0	-0.0
0.2195	-0.0	-0.0	-0.0	-1.935427188873291	-3.396015167236328	-882.9139404296875	-0.0	-0.0	-0.0	-0.0	-0.0	-0.0	-0.0	-0.0	-0.0	-0.0	-0.0	-0.0
0.22	-0.0	-0.0	-0.0	-2.1680715084075928	-5.169563293457031	-885.8788452148438	-0.0	-0.0	-0.0	-0.0	-0.0	-0.0	-0.0	-0.0	-0.0	-0.0	-0.0	-0.0
